Coordinates
version=1
nRows=15
nColumns=34
inDegrees=yes

Units are S.I. units (second, meters, Newtons, ...)
If the header above contains a line with 'inDegrees', this indicates whether rotational values are in degrees (yes) or radians (no).

endheader
time	pelvis_tilt	pelvis_list	pelvis_rotation	pelvis_tx	pelvis_ty	pelvis_tz	hip_flexion_r	hip_adduction_r	hip_rotation_r	knee_angle_r	ankle_angle_r	subtalar_angle_r	mtp_angle_r	hip_flexion_l	hip_adduction_l	hip_rotation_l	knee_angle_l	ankle_angle_l	subtalar_angle_l	mtp_angle_l	lumbar_extension	lumbar_bending	lumbar_rotation	arm_flex_r	arm_add_r	arm_rot_r	elbow_flex_r	pro_sup_r	arm_flex_l	arm_add_l	arm_rot_l	elbow_flex_l	pro_sup_l
      5.11666670	     26.66134191	      7.08483468	      0.49540811	      0.04345837	      0.48071243	     -0.00852758	     64.89550139	     -0.69633799	      1.51440931	     47.50036419	     -8.09060170	    -16.68043872	      0.00000000	     60.92425414	     -5.25631289	    -23.08268798	     47.90708185	     -2.04942093	      3.35298113	      0.00000000	    -54.04691477	      3.52110053	     12.14086150	     93.90082528	    -30.97797304	     38.67125196	     40.12863773	     71.17521926	    155.62792372	      2.83562215	     97.79077413	     33.07866005	     47.35820175
      5.13333330	     25.73197939	      7.32159717	      0.51006291	      0.04851608	      0.47869478	     -0.01005446	     66.02202160	     -0.85333619	      1.53766783	     48.01403628	     -7.48811370	    -16.12481115	      0.00000000	     62.04373378	     -5.31091195	    -22.97726574	     48.59159154	     -1.57827563	      3.31782056	      0.00000000	    -54.49669414	      3.42361166	     13.62512911	     95.15599017	    -31.12276263	     38.26631848	     39.32238697	     70.99434109	    157.67839440	      3.79447568	     97.15722931	     34.12521330	     47.28799411
      5.15000000	     25.40434280	      7.87244815	      0.88394879	      0.05145900	      0.47331916	     -0.00906212	     66.69573507	     -1.52432247	      1.72961664	     48.32448257	     -7.24254937	    -15.64102545	      0.00000000	     62.79783519	     -5.10551914	    -23.62153023	     49.16700672	     -1.34786925	      3.99530207	      0.00000000	    -54.87994682	      3.94569315	     14.54624503	     96.07586537	    -29.98559214	     37.14947123	     37.47586411	     69.88102292	    158.28259047	      2.89262852	     96.70307257	     37.49436790	     46.89234410
      5.16666670	     24.91332316	      8.05117463	      1.69361155	      0.06002480	      0.47456826	     -0.00945683	     67.98267255	     -2.25977906	      1.81518986	     49.89739908	     -7.11044483	    -16.38869489	      0.00000000	     63.58227913	     -4.81790790	    -23.55356945	     49.91298526	     -1.08230016	      4.23957273	      0.00000000	    -55.26732884	      4.40656119	     15.29271804	     96.32734936	    -30.17029302	     36.85234889	     36.93465546	     69.72191166	    159.41040813	      3.84302315	     96.43576841	     38.16509480	     46.85647447
      5.18333330	     23.83297517	      8.16144554	      1.91145482	      0.06545716	      0.46947940	     -0.00989814	     70.26752870	     -2.22988187	      1.97830248	     52.03941952	     -6.71229094	    -17.69775792	      0.00000000	     65.05654244	     -5.17358568	    -23.77127389	     50.76186740	     -1.48252629	      4.51157319	      0.00000000	    -54.57779491	      4.50826864	     16.28522466	     95.63437209	    -29.83075581	     35.63865522	     35.88526577	     68.81226055	    159.47251286	      4.25888215	     96.93148519	     40.49869616	     46.68859222
      5.20000000	     23.18621233	      8.39545980	      2.44489056	      0.07373885	      0.46832434	     -0.01160396	     71.83392213	     -2.74366288	      2.42329874	     53.79877110	     -6.03087744	    -18.78886664	      0.00000000	     66.14059618	     -5.27925945	    -24.42334112	     51.89718148	     -0.78851583	      4.85663499	      0.00000000	    -54.45370876	      4.68377478	     17.41031937	     95.15515809	    -30.26329985	     34.87849555	     34.61059464	     68.30919796	    159.47047594	      5.28184233	     96.85736674	     42.06002444	     46.57672820
      5.21666670	     22.50019839	      8.50508657	      2.55876972	      0.06315402	      0.46717116	     -0.01210919	     73.00396954	     -2.83081629	      2.98528855	     54.16324773	     -6.81225902	    -19.20504408	      0.00000000	     66.80521122	     -5.25671993	    -24.93132685	     51.38024946	     -1.80404285	      5.40185352	      0.00000000	    -55.30561029	      4.73327347	     19.06589138	     96.22215435	    -30.43859910	     34.06844138	     33.10865036	     67.78382621	    159.86340855	      6.12883030	     96.42532516	     42.78015124	     46.36158345
      5.23333330	     22.01808015	      9.06766393	      2.84943718	      0.07169732	      0.46967857	     -0.01094506	     73.97746460	     -3.28331955	      3.57738064	     55.14464595	     -7.86978487	    -20.02194541	      0.00000000	     66.93665142	     -5.02019624	    -25.75260354	     51.64893655	     -2.49404138	      5.61554342	      0.00000000	    -56.09726271	      4.91719611	     20.16740735	     96.13187156	    -30.82670073	     33.52587277	     31.88583663	     67.38384775	    159.26782983	      6.59062448	     96.31132311	     43.37177497	     46.23004099
      5.25000000	     21.21857838	      9.09906943	      2.86360522	      0.05989742	      0.46200038	     -0.00892736	     75.17821183	     -2.95795149	      4.10233249	     55.34935853	    -10.23905648	    -21.29798370	      0.00000000	     67.62394958	     -5.29334058	    -26.02972927	     51.62475173	     -2.99435706	      6.48641149	      0.00000000	    -57.30961898	      5.18137991	     21.24165804	     97.63646803	    -29.82028047	     32.78290859	     29.16814794	     65.68827644	    158.47106610	      6.77553125	     93.52105611	     42.93332104	     45.28606433
      5.26666670	     20.60926948	      9.23814323	      3.05522456	      0.06729607	      0.45952487	     -0.00925286	     76.04213831	     -3.03901118	      4.42249481	     55.20508764	    -11.36889776	    -21.86948453	      0.00000000	     68.44476978	     -5.26237477	    -26.26580514	     51.72206618	     -3.62344852	      6.52200782	      0.00000000	    -58.40077329	      5.37568600	     22.13369000	     97.97698369	    -30.31584190	     33.00343100	     27.75376808	     63.93710525	    157.58037225	      7.22072003	     89.98906907	     43.05809825	     44.87430223
      5.28333330	     20.04200797	      9.52956980	      3.11526430	      0.05767810	      0.45790812	     -0.00646343	     75.69189248	     -3.08712704	      4.29499784	     52.68331624	    -11.64478375	    -21.87910454	      0.00000000	     69.06876041	     -5.20453690	    -26.03391917	     51.52775426	     -4.57451421	      5.87475579	      0.00000000	    -60.09175663	      4.98850993	     22.11660713	     98.26772949	    -30.12542365	     33.00817666	     27.39422678	     63.74295875	    158.49845988	      7.84427611	     89.15522055	     42.88599507	     44.84414997
      5.30000000	     19.60164657	      9.57803091	      3.33059077	      0.06855718	      0.45875691	     -0.00944361	     76.09016517	     -3.18668253	      4.22150536	     52.53616518	    -11.26418836	    -22.46373842	      0.00000000	     69.65841184	     -5.03210631	    -26.12165961	     51.22872939	     -4.57477255	      5.54260700	      0.00000000	    -61.22345914	      5.34045894	     22.35681504	     97.12021019	    -30.19320576	     31.91798659	     26.91861536	     61.66035171	    156.80717963	      8.36180912	     83.46731002	     43.09077762	     45.18470934
      5.31666670	     18.56872940	      9.31740573	      3.22140273	      0.06937133	      0.44968088	     -0.01286954	     77.83426092	     -3.12699738	      4.12872896	     52.70819975	    -11.33314817	    -22.23328694	      0.00000000	     71.80790944	     -5.53143880	    -25.82245424	     52.49808465	     -4.33883436	      4.74198289	      0.00000000	    -62.09453002	      5.39637473	     21.64319787	     96.04955825	    -29.46444106	     31.99016449	     27.31442454	     61.54028593	    157.41289521	      8.87695930	     82.52266570	     43.25037213	     45.25770576
      5.33333330	     16.84562299	      9.16578363	      3.15476680	      0.08059399	      0.44202767	     -0.01792769	     81.16642415	     -3.14879533	      3.77451645	     55.32113485	    -10.47390597	    -21.71992521	      0.00000000	     74.86473142	     -5.84849365	    -25.65086767	     53.81270668	     -4.41522044	      3.75737453	      0.00000000	    -61.04101178	      6.12871600	     22.12772298	     91.09766676	    -30.21268102	     26.76181128	     31.60579143	     59.78942482	    153.20936068	      9.05027699	     73.79976628	     45.42298330	     47.07765243
      5.35000000	     15.50099903	      8.76718293	      3.38199800	      0.09276621	      0.43736689	     -0.01510475	     84.25296903	     -2.86400963	      4.22403973	     59.11073052	     -8.43524868	    -20.92909111	      0.00000000	     77.87598107	     -6.68528040	    -24.75264500	     56.88744846	     -3.37632711	      2.53762546	      0.00000000	    -59.93466191	      6.78507278	     22.11534272	     83.70349980	    -30.71851301	     20.68921400	     36.37341147	     59.53590788	    148.65351717	      9.16909560	     66.83254838	     50.23494549	     49.77295935
